<?xml version="1.0" standalone="no"?>
<!DOCTYPE svg PUBLIC "-//W3C//DTD SVG 20010904//EN"
 "http://www.w3.org/TR/2001/REC-SVG-20010904/DTD/svg10.dtd">
<svg version="1.0" xmlns="http://www.w3.org/2000/svg"
 width="2000.000000pt" height="1999.000000pt" viewBox="0 0 2000.000000 1999.000000"
 preserveAspectRatio="xMidYMid meet">

<g transform="translate(0.000000,1999.000000) scale(0.100000,-0.100000)"
fill="#000000" stroke="none">
<path d="M9770 19984 c-1768 -48 -3419 -527 -4920 -1427 -830 -499 -1613
-1144 -2270 -1873 -1023 -1136 -1777 -2495 -2190 -3949 -193 -680 -305 -1330
-362 -2100 -17 -223 -17 -1055 0 -1275 30 -406 65 -702 122 -1041 277 -1649
980 -3221 2028 -4539 521 -654 1139 -1257 1807 -1762 775 -585 1659 -1068
2570 -1403 1980 -728 4167 -807 6205 -224 2425 694 4530 2317 5822 4489 373
627 661 1252 888 1930 243 725 397 1438 469 2180 40 407 46 531 46 1005 0 474
-6 598 -46 1005 -184 1888 -925 3712 -2117 5210 -419 527 -909 1028 -1423
1457 -827 689 -1739 1231 -2739 1626 -982 388 -2049 621 -3100 676 -216 12
-625 19 -790 15z m980 -218 c712 -60 1336 -172 1957 -352 2056 -593 3846
-1830 5137 -3549 1070 -1425 1730 -3118 1905 -4890 36 -362 45 -564 45 -980 0
-416 -9 -618 -45 -980 -168 -1703 -785 -3335 -1785 -4727 -1670 -2324 -4258
-3803 -7089 -4052 -470 -42 -1212 -47 -1625 -12 -1001 86 -1876 283 -2762 622
-540 207 -1170 520 -1648 819 -1055 659 -1944 1474 -2684 2460 -782 1041
-1348 2230 -1665 3500 -345 1382 -382 2859 -105 4266 373 1903 1307 3652 2684
5029 954 954 2072 1689 3335 2192 908 361 1947 595 2920 658 94 6 193 12 220
14 140 10 1033 -3 1205 -18z"/>
<path d="M9760 19584 c-1400 -43 -2700 -357 -3925 -948 -1908 -922 -3472
-2464 -4415 -4356 -673 -1348 -1010 -2780 -1010 -4285 0 -1345 277 -2661 815
-3876 1017 -2294 2901 -4109 5230 -5037 843 -336 1748 -553 2655 -636 575 -53
1205 -53 1780 0 1885 173 3690 909 5155 2103 368 300 863 777 1160 1116 762
873 1343 1835 1755 2904 692 1796 818 3826 355 5716 -170 692 -402 1324 -726
1975 -381 764 -813 1410 -1384 2065 -191 219 -662 689 -880 880 -846 737
-1761 1297 -2785 1705 -948 379 -1953 601 -2980 659 -199 11 -643 20 -800 15z
m-116 -5628 c326 -205 607 -382 626 -392 l35 -19 -32 -3 -33 -3 0 -65 0 -64
-1195 0 -1195 0 0 64 0 65 -31 3 c-26 3 53 57 588 400 340 218 624 394 632
392 8 -3 280 -173 605 -378z m586 -1256 l0 -570 35 0 c33 0 35 -2 35 -35 l0
-35 -1260 0 -1260 0 0 35 c0 33 2 35 35 35 l35 0 0 570 0 570 1190 0 1190 0 0
-570z m675 -134 c203 -69 339 -191 490 -441 26 -44 54 -90 62 -103 14 -22 16
-23 39 -7 l24 15 0 -250 c0 -137 -3 -250 -7 -250 -16 0 -417 208 -420 217 -2
5 6 14 17 19 19 9 16 16 -58 135 -91 144 -135 206 -219 302 -110 126 -252 236
-391 301 -34 16 -62 33 -62 37 0 11 49 28 125 44 46 9 112 13 195 11 104 -3
139 -8 205 -30z m-495 -616 l0 -40 -1365 0 -1365 0 0 40 0 40 1365 0 1365 0 0
-40z m50 -135 l0 -35 -1420 0 -1420 0 0 35 0 35 1420 0 1420 0 0 -35z m-1866
-254 c45 -27 137 -81 205 -121 124 -73 124 -73 98 -87 -15 -7 -27 -15 -27 -17
0 -10 170 -301 213 -366 96 -143 317 -339 460 -406 20 -10 37 -21 37 -24 0
-15 -161 -35 -270 -34 -171 1 -301 43 -435 139 -117 83 -172 154 -305 393
l-62 113 -25 -16 c-14 -9 -26 -15 -27 -13 -1 2 3 102 10 223 7 121 13 233 13
249 1 34 4 33 115 -33z m3362 -238 c53 -28 107 -91 122 -142 9 -27 12 -225 12
-694 l0 -656 47 -53 c25 -29 85 -95 132 -146 101 -110 110 -124 111 -178 0
-46 -29 -87 -75 -104 -17 -6 -505 -10 -1363 -10 -1500 0 -1385 -6 -1425 73
-32 62 -16 92 138 265 l135 151 0 649 c0 703 0 706 55 777 28 37 65 60 130 81
32 10 241 13 990 11 l950 -2 41 -22z m-7398 -3377 c159 -41 239 -120 272 -266
16 -75 25 -1048 12 -1325 -13 -262 -22 -297 -100 -374 -44 -44 -72 -61 -122
-78 -107 -37 -180 -43 -512 -43 l-318 0 0 1056 0 1056 353 -5 c283 -3 364 -7
415 -21z m4692 2 c132 -36 196 -81 239 -171 39 -79 50 -150 57 -367 7 -202 -7
-431 -32 -508 -30 -92 -118 -172 -221 -203 -24 -7 -43 -14 -43 -16 0 -4 349
-782 361 -805 9 -17 1 -18 -104 -18 l-113 0 -174 395 -173 395 -156 -2 -156
-3 -3 -392 -2 -393 -100 0 -100 0 0 1056 0 1056 333 -5 c250 -3 346 -8 387
-19z m-3950 -478 c0 -355 -2 -348 81 -261 61 64 112 89 202 101 146 18 294
-24 344 -99 52 -77 53 -88 53 -743 l0 -608 -95 0 -95 0 0 604 0 604 -25 31
c-37 43 -81 54 -198 49 -119 -5 -189 -30 -237 -85 l-30 -34 0 -584 0 -585 -95
0 -95 0 0 960 0 960 95 0 95 0 0 -310z m5837 -240 l-6 -550 24 0 c22 0 33 16
90 130 36 72 118 212 182 310 l117 180 98 0 c54 0 98 -2 98 -4 0 -3 -82 -134
-181 -291 -157 -248 -180 -290 -171 -308 5 -12 106 -205 225 -429 l215 -408
-102 0 -101 1 -158 277 c-86 152 -168 294 -180 315 l-23 39 -57 -76 -57 -75 0
-241 0 -240 -95 0 -95 0 0 960 0 960 92 0 91 0 -6 -550z m2113 240 c0 -305 0
-310 20 -310 12 0 45 25 78 59 71 72 130 93 261 94 115 0 190 -22 246 -74 82
-75 79 -51 83 -756 l3 -623 -96 0 -95 0 0 593 c0 544 -1 595 -18 627 -29 58
-68 72 -202 68 -101 -3 -121 -7 -166 -30 -28 -15 -65 -43 -82 -63 l-32 -36 0
-579 0 -580 -95 0 -95 0 0 960 0 960 95 0 95 0 0 -310z m2275 60 c0 -135 -4
-381 -8 -548 l-8 -303 26 3 c23 3 38 25 109 158 45 85 127 223 182 305 l99
150 99 3 c78 2 97 0 93 -10 -2 -8 -84 -139 -181 -292 l-177 -279 37 -71 c55
-106 406 -770 411 -779 3 -4 -41 -6 -97 -5 l-102 3 -178 310 c-98 171 -181
310 -184 310 -3 0 -30 -33 -60 -74 l-56 -75 0 -238 0 -238 -95 0 -95 0 0 953
c0 525 3 957 7 961 4 4 46 5 93 4 l85 -3 0 -245z m-8655 -232 c119 -23 191
-84 227 -192 15 -45 17 -123 21 -648 l4 -598 -96 0 -96 0 0 65 c0 61 -1 65
-22 64 -15 0 -34 -15 -53 -42 -63 -87 -210 -126 -371 -98 -174 31 -243 106
-266 289 -17 141 18 270 95 350 74 78 245 153 485 213 l132 34 0 150 c0 175
-10 206 -75 239 -34 18 -58 21 -170 21 -110 0 -136 -3 -169 -20 -71 -36 -80
-58 -83 -203 l-3 -127 -89 -3 -88 -3 -6 71 c-14 173 27 315 111 377 96 72 318
99 512 61z m1137 12 c82 -11 161 -46 193 -87 57 -73 55 -45 58 -730 l3 -633
-96 0 -95 0 0 604 0 604 -25 31 c-36 42 -81 54 -194 49 -110 -4 -191 -34 -242
-89 l-29 -31 0 -584 0 -584 -95 0 -95 0 0 720 0 720 95 0 95 0 0 -70 c0 -68 1
-70 25 -70 14 0 25 4 25 8 0 17 84 92 126 112 23 12 71 25 106 29 35 5 65 9
68 9 3 1 38 -3 77 -8z m2458 -16 c101 -25 165 -80 202 -175 16 -40 18 -101 21
-651 l3 -608 -95 0 -96 0 0 65 c0 56 -3 65 -18 65 -10 0 -35 -21 -56 -46 -25
-29 -60 -56 -95 -73 -51 -23 -67 -26 -176 -25 -173 1 -254 34 -315 130 -59 94
-68 306 -17 417 64 139 222 226 585 318 l92 24 0 163 0 164 -33 33 c-24 24
-48 36 -92 45 -85 18 -228 9 -288 -18 -66 -29 -77 -59 -77 -212 l0 -121 -92 3
-93 3 -3 113 c-5 225 47 320 208 377 96 35 311 39 435 9z m2123 0 c34 -8 76
-21 91 -29 44 -22 100 -94 116 -148 20 -67 29 -182 20 -261 l-7 -66 -86 0 -87
0 0 133 c0 152 -9 177 -73 204 -83 35 -316 28 -374 -11 -49 -33 -60 -64 -61
-184 -2 -118 14 -168 63 -204 14 -10 104 -35 209 -58 265 -57 344 -99 398
-208 27 -55 28 -63 27 -202 -1 -264 -55 -354 -244 -401 -85 -21 -348 -19 -425
4 -160 49 -215 147 -215 390 l0 117 88 0 87 0 1 -135 c2 -150 9 -171 67 -202
24 -13 63 -18 162 -21 219 -7 276 19 295 134 21 125 8 218 -37 266 -27 28 -40
32 -290 92 -226 54 -303 99 -345 204 -20 51 -23 73 -22 202 1 183 17 244 84
310 32 33 61 51 104 64 114 36 317 41 454 10z m2153 16 c169 -16 246 -60 298
-170 l26 -55 3 -612 3 -613 -91 0 -90 0 0 65 c0 57 -2 65 -19 65 -11 0 -46
-26 -78 -58 -73 -74 -116 -87 -268 -86 -179 1 -266 46 -321 166 -27 59 -29 72
-29 188 0 119 1 128 31 190 70 146 201 220 544 310 l135 35 0 157 c0 142 -2
159 -21 185 -39 54 -85 68 -224 68 -109 0 -131 -3 -170 -22 -68 -34 -74 -49
-78 -200 l-4 -133 -88 0 -89 0 -7 47 c-11 75 2 222 25 285 48 127 153 178 401
196 8 1 58 -3 111 -8z m1162 -1981 c34 -18 37 -30 18 -68 -21 -41 -46 -126
-56 -188 -7 -43 -24 -58 -56 -48 -23 8 -24 25 -4 157 20 134 24 146 43 151 28
8 33 7 55 -4z m-11880 -55 c-5 -50 -39 -143 -53 -146 -41 -10 -50 2 -50 62 0
98 20 125 80 110 17 -5 24 -13 23 -26z m3617 -16 c0 -10 -10 -28 -21 -39 -18
-18 -29 -21 -74 -15 -29 3 -60 9 -69 12 -13 5 -16 -3 -16 -46 0 -49 1 -52 23
-47 79 18 84 18 89 0 8 -33 -7 -68 -28 -65 -89 16 -91 16 -98 -18 -3 -18 -6
-54 -6 -81 0 -38 -4 -51 -19 -59 -28 -14 -38 -13 -61 10 -25 25 -25 64 0 160
11 41 20 92 20 114 0 36 -2 38 -25 32 -22 -6 -25 -3 -25 19 0 14 9 34 21 46
19 19 28 20 124 14 67 -5 109 -4 121 3 22 13 44 -8 44 -40z m3078 24 c23 -11
45 -35 59 -62 88 -167 -93 -386 -262 -316 -63 27 -67 62 -24 218 13 48 20 90
15 95 -4 4 -19 -5 -34 -22 l-25 -30 7 35 c18 94 157 138 264 82z m5357 2 c0
-5 -9 -36 -19 -69 -10 -33 -20 -66 -22 -73 -3 -8 -16 -12 -36 -10 -33 3 -33 3
-32 55 2 75 11 103 37 112 24 9 72 -1 72 -15z m-12177 3 c7 -8 6 -18 -3 -31
-8 -10 -20 -43 -26 -72 -12 -53 -24 -65 -61 -56 -14 3 -18 15 -18 57 0 28 5
66 11 84 10 27 15 31 49 31 21 0 42 -6 48 -13z m406 -8 c43 -34 26 -97 -31
-114 -20 -6 -23 -3 -23 22 0 50 -48 73 -70 34 -17 -33 4 -66 68 -105 65 -39
72 -50 72 -101 0 -62 -89 -125 -176 -125 -40 0 -92 34 -100 65 -11 45 26 105
65 105 6 0 13 -17 17 -37 10 -59 22 -75 52 -71 19 2 30 11 37 32 9 25 6 31
-25 58 -101 85 -110 96 -110 136 0 72 61 121 151 122 32 0 54 -6 73 -21z
m1752 -4 c14 -14 35 -47 46 -73 l21 -47 14 42 c19 57 63 103 99 103 40 0 64
-26 64 -72 0 -37 -1 -38 -38 -38 -70 0 -122 -62 -122 -146 0 -115 -28 -164
-84 -150 -24 6 -24 6 -18 111 7 156 -21 217 -92 199 -30 -7 -31 -5 -12 40 25
60 79 73 122 31z m3715 15 c22 -12 26 -59 7 -78 -20 -20 -76 -15 -88 7 -14 28
-13 38 10 61 22 22 42 25 71 10z m2302 -1 c36 -19 57 -52 57 -92 0 -31 -7 -46
-34 -73 -19 -19 -41 -34 -50 -34 -21 0 -21 -4 10 -57 24 -39 31 -44 55 -41 26
4 29 2 29 -22 0 -37 -36 -80 -66 -80 -37 0 -67 36 -99 119 -25 64 -30 70 -37
50 -5 -12 -11 -50 -15 -83 -6 -62 -21 -86 -54 -86 -56 0 -62 67 -19 195 42
125 39 169 -9 109 -19 -25 -21 -25 -21 -6 0 27 47 81 85 98 37 16 138 18 168
3z m2399 -11 c24 -39 -14 -78 -76 -78 l-43 0 -12 -88 c-6 -49 -11 -114 -11
-145 0 -52 -3 -59 -25 -69 -31 -14 -75 3 -75 29 0 10 7 72 15 138 21 173 24
159 -38 152 l-54 -5 5 26 c10 58 21 61 170 57 95 -3 138 -8 144 -17z m1726 13
c11 -6 10 -14 -2 -42 -9 -19 -20 -53 -26 -77 -10 -41 -13 -43 -43 -40 l-32 3
2 68 c0 37 7 74 13 82 13 16 67 20 88 6z m-6062 -18 c13 -14 15 -29 11 -78 -3
-33 -9 -69 -13 -80 -5 -14 -1 -12 15 8 50 62 124 72 137 20 4 -15 2 -60 -5
-100 -13 -74 -9 -98 14 -89 21 7 6 -33 -18 -49 -29 -21 -61 -19 -81 4 -20 22
-22 40 -11 130 7 58 7 63 -10 60 -10 -2 -27 -17 -39 -32 -17 -23 -20 -41 -18
-86 2 -69 -19 -98 -63 -87 -41 10 -45 41 -24 162 10 60 19 132 19 161 0 39 4
55 18 62 25 15 48 13 68 -6z m820 -8 c16 -25 15 -61 -3 -135 -6 -24 -6 -24 25
7 39 39 88 52 110 29 17 -17 19 -49 7 -150 -7 -62 -7 -69 8 -63 27 10 20 -19
-9 -42 -34 -27 -58 -27 -85 0 -22 22 -22 26 -3 147 8 53 -12 57 -51 10 -23
-27 -26 -39 -22 -77 6 -58 -6 -89 -38 -97 -32 -8 -65 19 -65 53 0 13 9 76 21
140 11 64 19 130 16 146 -7 53 59 77 89 32z m1658 12 c21 -15 24 -48 11 -122
l-8 -50 27 32 c30 35 75 50 105 33 46 -24 33 -107 -22 -140 l-30 -18 26 -26
c14 -14 35 -26 47 -26 28 0 25 -14 -11 -44 -58 -49 -122 -22 -122 52 0 34 6
47 33 72 36 34 35 54 -3 58 -39 5 -70 -47 -64 -107 6 -58 -6 -89 -38 -97 -32
-8 -65 19 -65 52 0 13 9 80 20 148 11 69 18 136 14 150 -9 39 43 60 80 33z
m601 -7 c14 -16 17 -30 12 -72 -3 -29 -9 -62 -13 -73 -5 -15 2 -12 27 12 43
41 89 52 114 27 18 -18 18 -21 -1 -168 -6 -44 -5 -49 10 -43 31 12 14 -36 -17
-51 -66 -32 -106 14 -87 100 5 27 10 60 10 74 0 36 -28 28 -57 -15 -19 -28
-22 -42 -17 -85 5 -43 3 -54 -15 -70 -14 -13 -28 -16 -46 -12 -44 11 -49 40
-26 166 12 63 21 136 21 162 0 34 5 50 18 57 26 16 47 13 67 -9z m640 3 c14
-13 16 -29 12 -72 -3 -31 -9 -65 -13 -76 -5 -14 5 -9 34 18 56 49 95 49 121 0
17 -32 4 -68 -36 -104 l-35 -30 23 -25 c12 -13 33 -24 46 -24 31 0 29 -13 -8
-44 -38 -33 -73 -33 -104 -1 -35 34 -33 77 5 117 37 39 40 68 6 68 -42 0 -66
-43 -66 -116 0 -66 -15 -94 -50 -94 -51 0 -60 48 -35 185 8 44 14 106 15 137
0 43 4 59 18 67 25 15 48 13 67 -6z m1233 5 c16 -16 15 -57 -3 -151 -8 -43
-15 -101 -15 -129 0 -45 2 -50 20 -45 17 4 18 2 9 -14 -16 -30 -56 -52 -83
-45 -14 3 -29 18 -36 37 l-13 31 -16 -26 c-20 -34 -63 -51 -90 -37 -36 20 -51
52 -51 114 0 66 16 103 60 141 39 32 74 33 105 2 l24 -24 6 53 c4 30 4 58 1
64 -7 11 31 41 54 41 9 0 21 -5 28 -12z m-6972 -22 c3 -8 1 -30 -4 -50 -9 -32
-8 -35 11 -38 16 -2 22 -10 22 -28 0 -21 -4 -25 -26 -22 -23 2 -27 -2 -33 -35
-16 -100 -3 -143 39 -127 21 9 19 -12 -5 -36 -43 -43 -111 -34 -131 17 -7 18
-7 48 1 94 13 89 13 88 -12 82 -22 -4 -21 -3 5 21 18 16 30 40 34 64 9 59 20
72 59 72 21 0 37 -6 40 -14z m1840 0 c3 -8 1 -30 -4 -50 -9 -32 -8 -35 11 -38
16 -2 22 -10 22 -28 0 -21 -4 -25 -26 -22 -23 2 -27 -2 -33 -35 -16 -100 -3
-143 39 -127 22 9 18 -12 -7 -36 -30 -27 -64 -35 -94 -21 -37 17 -47 54 -34
132 13 89 13 88 -12 82 -22 -4 -21 -3 5 21 18 16 30 40 34 64 9 59 20 72 59
72 21 0 37 -6 40 -14z m-5372 -87 c14 -7 30 -25 35 -41 24 -69 -53 -142 -126
-120 -37 11 -40 7 -17 -26 18 -26 61 -29 104 -7 28 14 30 14 30 -3 0 -23 -35
-57 -73 -71 -98 -37 -186 26 -174 126 12 107 130 183 221 142z m300 -10 c32
-25 32 -33 1 -64 -31 -32 -55 -32 -55 -1 0 29 -13 40 -39 31 -39 -12 -55 -101
-25 -143 21 -30 79 -30 111 0 33 31 31 -1 -3 -41 -30 -36 -88 -56 -136 -47
-116 22 -115 201 2 263 54 29 109 30 144 2z m154 5 c25 -17 28 -46 11 -124
-13 -63 -1 -84 31 -55 24 22 54 117 45 144 -8 25 35 56 65 46 38 -12 43 -39
20 -118 -26 -95 -26 -111 1 -104 29 8 21 -20 -13 -46 -35 -26 -76 -16 -91 22
l-10 28 -24 -27 c-30 -37 -68 -46 -100 -24 -25 16 -25 19 -19 88 4 39 7 82 9
96 1 18 -3 25 -15 24 -25 -2 -22 13 7 41 28 29 51 31 83 9z m336 0 c9 -8 16
-24 16 -35 0 -17 5 -15 34 15 18 20 40 36 48 36 35 0 49 -46 27 -94 -15 -31
-40 -42 -51 -21 -11 18 -39 20 -56 3 -7 -7 -12 -40 -12 -77 0 -91 -40 -130
-85 -81 -15 17 -17 29 -10 82 13 107 12 123 -7 120 -25 -4 -22 15 7 43 28 28
66 32 89 9z m390 -5 c75 -59 -15 -185 -107 -150 -31 12 -34 5 -11 -27 18 -26
61 -29 104 -7 28 15 30 14 30 -4 0 -46 -93 -90 -163 -77 -115 22 -113 202 3
263 54 29 109 30 144 2z m771 6 c92 -44 76 -203 -26 -255 -98 -50 -199 2 -199
102 1 66 50 138 110 161 29 11 82 7 115 -8z m203 -1 c25 -17 28 -46 11 -124
-13 -63 -1 -84 31 -55 24 22 54 117 45 144 -8 25 35 56 65 46 38 -12 43 -39
20 -118 -26 -95 -26 -111 1 -104 29 8 21 -20 -13 -46 -35 -26 -76 -16 -91 22
l-10 28 -26 -28 c-37 -40 -74 -46 -101 -19 -21 21 -22 29 -16 89 12 120 12
116 -6 115 -25 -2 -22 13 7 41 28 29 51 31 83 9z m336 0 c9 -8 16 -24 16 -35
0 -17 5 -15 34 15 18 20 40 36 48 36 35 0 49 -46 27 -94 -15 -31 -40 -42 -51
-21 -11 18 -39 20 -56 3 -7 -7 -12 -40 -12 -77 0 -91 -40 -130 -85 -81 -15 17
-17 29 -10 82 13 107 12 123 -7 120 -25 -4 -22 15 7 43 28 28 66 32 89 9z
m674 0 c25 -17 28 -46 11 -124 -13 -63 -1 -84 31 -55 24 22 54 117 45 144 -9
29 37 58 69 43 31 -14 36 -38 19 -97 -7 -28 -16 -68 -20 -89 -6 -37 -5 -39 16
-33 31 8 24 -20 -11 -46 -35 -26 -76 -16 -91 22 l-10 28 -24 -27 c-30 -37 -68
-46 -100 -24 -25 16 -25 19 -19 88 4 39 7 82 9 96 1 18 -3 25 -15 24 -26 -2
-22 22 8 45 32 25 52 26 82 5z m537 2 c20 -15 22 -54 6 -126 -5 -23 -7 -49 -4
-56 18 -48 74 39 79 121 3 60 29 85 68 67 36 -16 39 -44 16 -123 -22 -74 -21
-99 5 -99 19 0 19 -14 -1 -34 -37 -37 -98 -27 -110 18 -5 22 -6 22 -39 -11
-38 -38 -66 -42 -96 -12 -20 20 -21 28 -14 88 12 111 12 116 -7 113 -21 -3
-22 2 -7 29 19 35 72 48 104 25z m320 8 c9 -4 21 -18 26 -31 l9 -25 29 31 c45
48 81 36 81 -26 0 -49 -50 -94 -64 -58 -7 19 -40 20 -55 1 -7 -8 -11 -40 -9
-74 2 -48 -2 -65 -16 -81 -24 -26 -48 -27 -71 -1 -15 17 -17 29 -10 77 14 101
12 128 -7 125 -21 -3 -22 2 -7 29 16 30 60 46 94 33z m389 -5 c63 -29 50 -126
-21 -155 -29 -12 -45 -14 -70 -6 -37 11 -40 7 -17 -26 20 -28 75 -30 114 -2
l28 20 -5 -22 c-24 -99 -191 -119 -238 -28 -62 120 86 275 209 219z m291 -2
c19 -14 19 -22 -1 -158 -8 -55 4 -66 39 -39 21 17 25 29 29 91 3 60 8 74 27
90 26 22 30 22 51 9 20 -13 17 -90 -6 -129 -15 -25 -16 -34 -6 -56 15 -32 30
-29 60 15 17 26 22 47 22 98 0 70 13 91 57 92 30 0 43 -28 43 -92 -1 -95 -59
-179 -134 -193 -37 -7 -90 14 -100 40 -5 14 -11 12 -40 -10 -48 -37 -98 -43
-125 -16 -24 24 -26 53 -6 135 15 63 12 81 -11 72 -17 -6 -17 -1 -3 25 18 35
72 48 104 26z m465 -7 c25 -25 25 -42 0 -124 -21 -67 -19 -92 6 -82 22 8 16
-13 -11 -39 -28 -29 -51 -31 -83 -9 -26 18 -29 64 -7 117 8 20 15 48 15 62 0
16 -6 25 -15 25 -18 0 -18 5 -4 31 20 39 70 48 99 19z m1565 -5 c17 -16 25
-19 25 -10 0 15 30 35 52 35 8 0 22 -6 32 -13 18 -13 18 -16 2 -63 -8 -27 -17
-71 -18 -99 -3 -42 0 -50 15 -49 19 2 19 2 11 -21 -9 -23 -62 -48 -90 -41 -14
4 -26 16 -30 30 l-5 23 -29 -28 c-48 -49 -101 -30 -121 43 -20 77 12 171 69
203 39 21 60 18 87 -10z m267 8 c10 -9 18 -25 18 -36 0 -20 2 -19 28 5 89 84
151 48 123 -72 -16 -69 -14 -113 4 -106 25 9 17 -21 -11 -43 -34 -27 -58 -27
-85 0 -17 17 -20 29 -16 58 20 135 20 131 4 131 -8 0 -27 -14 -42 -31 -23 -29
-25 -37 -20 -84 6 -46 4 -56 -14 -74 -26 -26 -45 -27 -71 -1 -24 24 -24 36 -5
118 16 66 14 82 -11 82 -23 0 -16 27 12 49 32 25 61 27 86 4z m762 -6 c23 -23
23 -23 32 -3 11 26 56 33 77 12 13 -14 13 -20 0 -58 -8 -24 -17 -70 -21 -102
-4 -52 -3 -59 11 -53 27 10 20 -19 -10 -43 -34 -26 -75 -23 -88 8 -11 25 -23
28 -31 8 -3 -8 -19 -20 -35 -26 -95 -40 -140 148 -56 239 42 45 87 52 121 18z
m691 -1 c16 -16 22 -31 19 -41 -8 -21 -57 -41 -62 -26 -2 6 -12 21 -22 33 -15
19 -20 20 -34 9 -23 -19 -6 -44 58 -80 30 -16 58 -40 61 -52 9 -28 -20 -68
-66 -91 -99 -51 -238 16 -165 79 36 30 44 29 54 -9 9 -36 32 -54 56 -45 26 10
19 41 -14 60 -59 36 -90 68 -90 96 0 75 149 123 205 67z m545 4 c24 -24 30
-25 30 -6 0 27 60 36 80 11 10 -12 9 -26 -4 -73 -21 -77 -22 -146 -1 -138 21
8 19 -17 -3 -37 -10 -9 -32 -19 -49 -23 -24 -5 -34 -1 -49 19 l-20 24 -28 -23
c-62 -54 -116 -7 -116 101 0 60 15 98 52 131 42 39 79 43 108 14z m1130 5 c82
-42 76 -184 -10 -245 -42 -30 -116 -38 -157 -17 -92 48 -74 205 30 256 50 25
97 27 137 6z m585 -10 c17 -16 25 -19 25 -10 0 15 30 35 52 35 8 0 22 -6 32
-13 18 -13 18 -16 2 -63 -8 -27 -17 -71 -18 -99 -3 -42 0 -50 15 -49 22 2 22
-7 -3 -34 -39 -41 -110 -36 -110 8 0 16 -4 14 -29 -11 -33 -32 -56 -36 -88
-14 -68 48 -45 216 35 260 39 21 60 18 87 -10z m259 9 c19 -18 20 -54 5 -124
-13 -62 -2 -83 29 -52 19 19 23 37 35 156 3 29 31 42 64 30 32 -11 31 -1 8
-159 -23 -162 -65 -235 -134 -235 -22 0 -52 31 -53 56 -1 11 2 33 6 50 6 26 3
32 -17 41 -31 15 -37 49 -22 124 12 57 7 78 -15 64 -22 -14 -8 25 16 44 32 25
57 27 78 5z m298 -176 c26 -21 28 -45 7 -72 -23 -30 -54 -33 -81 -9 -24 21
-23 48 2 73 23 23 49 26 72 8z"/>
<path d="M8965 14033 c-48 -25 -73 -53 -91 -99 -57 -149 104 -297 244 -225 71
36 102 87 102 167 0 52 -16 88 -57 126 -52 49 -138 63 -198 31z"/>
<path d="M8160 13037 c-13 -7 -27 -23 -31 -37 -4 -14 -7 -215 -8 -447 l-1
-423 65 0 65 0 0 439 0 440 -26 20 c-31 24 -31 25 -64 8z"/>
<path d="M8585 13038 c-11 -6 -23 -16 -27 -22 -4 -6 -8 -208 -8 -448 l0 -438
60 0 60 0 0 444 c0 343 -3 446 -12 454 -23 17 -52 22 -73 10z"/>
<path d="M9443 13039 c-12 -4 -26 -17 -32 -28 -7 -13 -11 -165 -11 -450 l0
-431 65 0 65 0 0 433 c0 364 -2 436 -15 454 -17 25 -43 33 -72 22z"/>
<path d="M9860 13037 c-13 -7 -27 -23 -31 -37 -4 -14 -7 -215 -8 -447 l-1
-423 65 0 65 0 0 439 0 440 -26 20 c-31 24 -31 25 -64 8z"/>
<path d="M10030 10495 l0 -595 905 0 905 0 0 595 0 595 -905 0 -905 0 0 -595z
m950 430 c0 -21 5 -25 28 -25 45 0 144 -27 153 -41 5 -8 8 -39 7 -69 l-3 -55
-35 3 c-19 2 -78 4 -131 5 -109 2 -129 -7 -129 -57 0 -44 25 -65 140 -119 107
-50 153 -91 156 -140 1 -18 5 -48 9 -67 18 -93 -53 -194 -157 -224 -54 -15
-58 -19 -58 -46 0 -29 -2 -30 -45 -30 -30 0 -47 5 -51 14 -3 8 -27 17 -57 21
-85 11 -125 24 -142 48 -15 21 -20 91 -9 121 8 21 47 20 87 -1 23 -12 56 -17
119 -18 78 0 89 2 112 24 29 28 34 66 11 98 -8 11 -45 33 -82 49 -85 35 -167
88 -193 124 -29 41 -44 108 -36 165 7 43 15 57 60 101 36 35 70 57 104 68 47
16 52 21 52 47 0 28 2 29 45 29 41 0 45 -2 45 -25z"/>
<path d="M9872 9683 l-81 -88 412 -3 c227 -1 417 0 424 2 7 3 17 23 24 46 l12
40 276 -2 276 -3 15 -42 14 -43 409 0 408 0 -21 28 c-12 15 -48 55 -81 90
l-59 62 -974 0 -974 0 -80 -87z"/>
<path d="M3990 6915 l0 -865 218 0 c290 0 357 17 407 101 19 32 20 58 25 399
3 201 3 529 0 730 -5 344 -6 367 -26 400 -46 79 -133 100 -422 100 l-202 0 0
-865z"/>
<path d="M8730 7309 l0 -471 223 4 222 3 60 30 c100 51 100 49 100 435 0 371
-2 380 -79 424 -63 37 -131 46 -336 46 l-190 0 0 -471z"/>
<path d="M6795 6545 c-122 -33 -231 -72 -282 -101 -83 -48 -122 -144 -108
-270 6 -63 11 -72 49 -110 33 -34 53 -44 101 -54 122 -25 259 6 331 75 l44 42
0 221 0 222 -22 -1 c-13 0 -63 -11 -113 -24z"/>
<path d="M10455 6567 c-111 -26 -281 -80 -332 -106 -108 -55 -147 -119 -145
-240 2 -92 15 -133 53 -166 100 -83 336 -65 432 33 l37 38 -2 225 -3 225 -40
-9z"/>
<path d="M14720 6535 c-298 -87 -352 -133 -358 -305 -4 -110 19 -162 90 -198
89 -46 241 -39 341 16 88 47 87 43 87 298 l0 224 -22 0 c-13 -1 -75 -16 -138
-35z"/>
<path d="M10590 5198 c0 -24 -7 -81 -17 -127 -15 -79 -15 -85 1 -96 54 -40
137 75 120 166 -10 49 -21 67 -54 84 -44 23 -50 19 -50 -27z"/>
<path d="M11960 5184 c0 -53 1 -55 23 -49 23 7 57 40 57 56 0 17 -40 49 -60
49 -18 0 -20 -7 -20 -56z"/>
<path d="M14915 5090 c-19 -36 -20 -104 -1 -119 29 -25 88 88 66 129 -16 29
-47 25 -65 -10z"/>
<path d="M4488 5113 c-26 -29 -31 -60 -12 -67 25 -10 50 2 62 29 22 48 -16 76
-50 38z"/>
<path d="M5664 5122 c-13 -8 -34 -46 -34 -61 0 -19 41 -23 61 -5 25 22 26 74
2 74 -10 0 -23 -4 -29 -8z"/>
<path d="M6429 5114 c-17 -20 -23 -112 -10 -146 13 -35 44 -36 59 -3 15 32 16
120 2 146 -13 23 -33 25 -51 3z"/>
<path d="M8898 5113 c-26 -29 -31 -60 -12 -67 25 -10 50 2 62 29 22 48 -16 76
-50 38z"/>
<path d="M11266 5101 c-24 -27 -32 -100 -13 -125 14 -19 14 -19 35 2 28 28 49
99 35 120 -15 25 -37 26 -57 3z"/>
<path d="M12285 5090 c-17 -32 -20 -97 -5 -120 23 -37 93 88 71 129 -17 30
-48 26 -66 -9z"/>
<path d="M13524 5095 c-20 -31 -23 -110 -5 -128 29 -28 88 94 64 132 -16 26
-41 24 -59 -4z"/>
<path d="M14601 5111 c-34 -62 -18 -175 22 -169 57 8 58 188 1 188 -7 0 -18
-8 -23 -19z"/>
<path d="M15246 5101 c-24 -27 -32 -100 -13 -125 13 -18 14 -18 36 5 29 31 48
96 34 117 -15 25 -37 26 -57 3z"/>
<path d="M15577 4927 c-30 -47 -39 -77 -21 -77 17 0 47 63 42 88 -2 12 -7 9
-21 -11z"/>
</g>
</svg>
